<svg width="777" height="547" viewBox="0 0 777 547" fill="none" xmlns="http://www.w3.org/2000/svg">
<mask id="mask0_89_467" style="mask-type:alpha" maskUnits="userSpaceOnUse" x="0" y="6" width="771" height="430">
<rect y="6" width="770.394" height="429.388" rx="78" fill="#808080"/>
<rect y="6" width="770.394" height="429.388" rx="78" stroke="black"/>
</mask>
<g mask="url(#mask0_89_467)">
<circle cx="208.065" cy="246.472" r="15.0985" fill="#03A9F4"/>
<circle cx="768.553" cy="265.621" r="7.7334" fill="#03A9F4"/>
<circle cx="638.926" cy="224.376" r="34.2479" fill="#F44336"/>
<circle cx="139.201" cy="444.226" r="23.5685" fill="#03A9F4"/>
<circle cx="170.871" cy="232.846" r="2.94606" fill="#9C27B0"/>
<circle cx="552.386" cy="224.745" r="25.0415" fill="#2196F3"/>
<circle cx="208.065" cy="177.24" r="40.14" fill="#E91E63"/>
<circle cx="449.642" cy="365.051" r="18.0446" fill="#03A9F4"/>
<circle cx="215.062" cy="176.871" r="19.8859" fill="#F44336"/>
<circle cx="671.333" cy="229.532" r="24.6732" fill="#03A9F4"/>
<circle cx="585.529" cy="92.9087" r="41.2448" fill="#9C27B0"/>
<circle cx="716.26" cy="317.177" r="42.3496" fill="#9C27B0"/>
<circle cx="581.846" cy="328.593" r="39.7718" fill="#2196F3"/>
<circle cx="665.072" cy="215.17" r="2.20954" fill="#2196F3"/>
<circle cx="253.729" cy="447.54" r="26.8828" fill="#E91E63"/>
<circle cx="238.999" cy="471.845" r="44.5591" fill="#E91E63"/>
<circle cx="743.879" cy="228.427" r="16.2033" fill="#2196F3"/>
<circle cx="296.079" cy="410.346" r="45.6639" fill="#9C27B0"/>
<circle cx="229.424" cy="252.364" r="35.7209" fill="#03A9F4"/>
<circle cx="609.466" cy="57.9243" r="23.2002" fill="#F44336"/>
<circle cx="422.023" cy="208.541" r="11.7842" fill="#E91E63"/>
<circle cx="232.739" cy="441.28" r="8.10166" fill="#2196F3"/>
<circle cx="264.04" cy="438.702" r="37.9305" fill="#E91E63"/>
<circle cx="281.348" cy="142.255" r="7.36514" fill="#E91E63"/>
<circle cx="744.248" cy="327.488" r="8.46991" fill="#E91E63"/>
<circle cx="347.635" cy="132.68" r="38.2987" fill="#E91E63"/>
<circle cx="604.31" cy="193.443" r="17.3081" fill="#E91E63"/>
<circle cx="665.072" cy="152.566" r="2.20954" fill="#F44336"/>
<circle cx="807.588" cy="373.889" r="37.9305" fill="#9C27B0"/>
<circle cx="120.052" cy="350.689" r="8.10166" fill="#9C27B0"/>
<circle cx="774.077" cy="237.265" r="6.62863" fill="#03A9F4"/>
<circle cx="145.462" cy="200.072" r="43.0861" fill="#03A9F4"/>
<circle cx="246.364" cy="134.522" r="37.194" fill="#F44336"/>
<circle cx="516.665" cy="146.306" r="17.3081" fill="#03A9F4"/>
<circle cx="257.043" cy="421.394" r="20.6224" fill="#F44336"/>
<circle cx="668.387" cy="284.034" r="32.7749" fill="#2196F3"/>
<circle cx="165.716" cy="243.894" r="39.0353" fill="#03A9F4"/>
<circle cx="419.077" cy="395.616" r="17.6763" fill="#03A9F4"/>
<circle cx="718.47" cy="166.928" r="45.2956" fill="#03A9F4"/>
<circle cx="408.029" cy="270.409" r="10.3112" fill="#F44336"/>
<circle cx="371.94" cy="234.319" r="22.8319" fill="#F44336"/>
<circle cx="196.649" cy="252.732" r="45.6639" fill="#F44336"/>
<circle cx="494.569" cy="220.694" r="35.7209" fill="#9C27B0"/>
<circle cx="366.784" cy="140.046" r="22.0954" fill="#9C27B0"/>
<circle cx="392.93" cy="32.1463" r="28.3558" fill="#03A9F4"/>
<circle cx="130.363" cy="230.637" r="39.0353" fill="#03A9F4"/>
<circle cx="359.787" cy="107.271" r="24.6732" fill="#F44336"/>
<circle cx="30.9336" cy="72.2863" r="22.0954" fill="#2196F3"/>
<circle cx="269.196" cy="399.667" r="18.7811" fill="#E91E63"/>
<circle cx="424.232" cy="258.624" r="14.7303" fill="#E91E63"/>
<circle cx="197.754" cy="341.482" r="23.2002" fill="#F44336"/>
<circle cx="705.581" cy="212.961" r="41.2448" fill="#E91E63"/>
<circle cx="241.208" cy="374.625" r="44.5591" fill="#9C27B0"/>
<circle cx="240.472" cy="63.0798" r="40.14" fill="#2196F3"/>
<circle cx="442.277" cy="252.364" r="12.1525" fill="#2196F3"/>
<circle cx="588.107" cy="48.3496" r="40.8765" fill="#E91E63"/>
<circle cx="373.044" cy="202.281" r="32.0384" fill="#F44336"/>
<circle cx="193.703" cy="221.062" r="40.5083" fill="#F44336"/>
<circle cx="778.864" cy="307.603" r="24.6732" fill="#2196F3"/>
<circle cx="97.9564" cy="414.029" r="12.5207" fill="#F44336"/>
<circle cx="15.8351" cy="284.771" r="19.5176" fill="#F44336"/>
<circle cx="775.918" cy="188.287" r="26.1463" fill="#03A9F4"/>
<circle cx="716.628" cy="84.0705" r="17.6763" fill="#2196F3"/>
<circle cx="703.371" cy="276.301" r="36.0892" fill="#E91E63"/>
<circle cx="172.713" cy="61.6068" r="4.78734" fill="#9C27B0"/>
<circle cx="229.056" cy="387.514" r="18.4129" fill="#F44336"/>
<circle cx="798.381" cy="73.7593" r="42.7178" fill="#03A9F4"/>
<circle cx="272.51" cy="142.992" r="20.6224" fill="#03A9F4"/>
<circle cx="86.5404" cy="141.15" r="1.84129" fill="#E91E63"/>
<circle cx="326.644" cy="372.416" r="5.52386" fill="#F44336"/>
<circle cx="705.212" cy="383.464" r="16.5716" fill="#2196F3"/>
<circle cx="394.035" cy="95.1182" r="40.5083" fill="#9C27B0"/>
<circle cx="28.3558" cy="386.41" r="20.9907" fill="#F44336"/>
<circle cx="501.566" cy="138.573" r="41.2448" fill="#E91E63"/>
<circle cx="577.795" cy="407.769" r="28.3558" fill="#2196F3"/>
<circle cx="776.654" cy="372.416" r="19.5176" fill="#E91E63"/>
<circle cx="125.207" cy="338.904" r="2.20954" fill="#F44336"/>
<circle cx="40.5083" cy="467.794" r="33.8797" fill="#03A9F4"/>
<circle cx="77.7023" cy="440.912" r="33.5114" fill="#9C27B0"/>
<circle cx="144.725" cy="449.013" r="34.9844" fill="#2196F3"/>
<circle cx="146.198" cy="284.771" r="32.7749" fill="#F44336"/>
<circle cx="600.996" cy="176.135" r="20.6224" fill="#E91E63"/>
<circle cx="165.716" cy="218.853" r="11.7842" fill="#E91E63"/>
<circle cx="161.297" cy="428.023" r="26.5145" fill="#9C27B0"/>
<circle cx="632.666" cy="394.88" r="2.94606" fill="#9C27B0"/>
<circle cx="471.369" cy="359.527" r="5.1556" fill="#03A9F4"/>
<circle cx="60.3942" cy="376.467" r="14.7303" fill="#2196F3"/>
<circle cx="681.644" cy="347.374" r="27.6193" fill="#9C27B0"/>
<circle cx="420.181" cy="409.242" r="24.6732" fill="#F44336"/>
<circle cx="241.945" cy="166.192" r="5.52386" fill="#E91E63"/>
<circle cx="209.17" cy="89.9626" r="35.3527" fill="#03A9F4"/>
<circle cx="389.984" cy="424.708" r="7.7334" fill="#F44336"/>
<circle cx="668.018" cy="256.415" r="23.5685" fill="#F44336"/>
<circle cx="94.2738" cy="145.201" r="24.305" fill="#9C27B0"/>
<circle cx="221.323" cy="463.007" r="39.4035" fill="#9C27B0"/>
<circle cx="479.103" cy="225.85" r="38.667" fill="#9C27B0"/>
<circle cx="122.261" cy="380.149" r="33.1431" fill="#2196F3"/>
<circle cx="483.522" cy="365.051" r="32.0384" fill="#03A9F4"/>
<circle cx="289.082" cy="309.076" r="17.3081" fill="#2196F3"/>
<circle cx="229.424" cy="117.582" r="29.0923" fill="#03A9F4"/>
<circle cx="89.4865" cy="238.37" r="18.0446" fill="#E91E63"/>
<circle cx="306.39" cy="156.249" r="27.251" fill="#2196F3"/>
<circle cx="536.919" cy="143.728" r="13.2573" fill="#9C27B0"/>
<circle cx="399.559" cy="139.677" r="21.7272" fill="#E91E63"/>
<circle cx="589.58" cy="432.074" r="36.4575" fill="#03A9F4"/>
<circle cx="86.9087" cy="66.3942" r="19.8859" fill="#9C27B0"/>
<circle cx="581.11" cy="187.183" r="24.305" fill="#E91E63"/>
<circle cx="219.481" cy="352.162" r="7.36514" fill="#E91E63"/>
<circle cx="93.5373" cy="363.209" r="2.94606" fill="#2196F3"/>
<circle cx="465.477" cy="333.749" r="5.89211" fill="#F44336"/>
<circle cx="704.476" cy="236.161" r="21.7272" fill="#03A9F4"/>
<circle cx="40.8765" cy="89.5944" r="13.6255" fill="#E91E63"/>
<circle cx="427.915" cy="385.305" r="10.3112" fill="#03A9F4"/>
<circle cx="543.548" cy="238.002" r="16.9398" fill="#E91E63"/>
<circle cx="412.08" cy="308.339" r="16.5716" fill="#9C27B0"/>
<circle cx="732.095" cy="202.649" r="33.1431" fill="#9C27B0"/>
<circle cx="319.279" cy="211.856" r="30.5653" fill="#F44336"/>
<circle cx="118.579" cy="321.965" r="38.2987" fill="#03A9F4"/>
<circle cx="219.481" cy="390.46" r="33.1431" fill="#2196F3"/>
<circle cx="365.311" cy="77.4419" r="7.36514" fill="#03A9F4"/>
<circle cx="550.544" cy="301.71" r="34.9844" fill="#F44336"/>
<circle cx="546.862" cy="394.511" r="42.3496" fill="#E91E63"/>
<circle cx="82.1214" cy="101.379" r="19.5176" fill="#03A9F4"/>
<circle cx="340.638" cy="248.681" r="44.5591" fill="#E91E63"/>
<circle cx="38.2988" cy="450.118" r="30.9336" fill="#E91E63"/>
<circle cx="32.4066" cy="106.902" r="7.36514" fill="#2196F3"/>
<circle cx="468.423" cy="151.83" r="4.41909" fill="#F44336"/>
<circle cx="138.833" cy="260.466" r="12.889" fill="#03A9F4"/>
<circle cx="532.5" cy="123.106" r="19.1494" fill="#03A9F4"/>
<circle cx="361.629" cy="428.759" r="37.5622" fill="#F44336"/>
<circle cx="661.022" cy="319.387" r="40.14" fill="#2196F3"/>
<circle cx="184.129" cy="312.39" r="16.9398" fill="#03A9F4"/>
<circle cx="661.022" cy="76.3371" r="3.31431" fill="#9C27B0"/>
<circle cx="754.559" cy="348.111" r="12.889" fill="#2196F3"/>
<circle cx="580.742" cy="375.362" r="8.46991" fill="#03A9F4"/>
<circle cx="564.538" cy="290.663" r="2.5778" fill="#9C27B0"/>
<circle cx="331.063" cy="395.984" r="22.4637" fill="#03A9F4"/>
<circle cx="467.687" cy="351.425" r="18.4129" fill="#9C27B0"/>
<circle cx="474.315" cy="50.9274" r="3.68257" fill="#2196F3"/>
<circle cx="555.7" cy="75.6006" r="44.5591" fill="#F44336"/>
<circle cx="250.047" cy="175.03" r="27.6193" fill="#2196F3"/>
<circle cx="714.051" cy="91.0674" r="32.7749" fill="#E91E63"/>
<circle cx="18.7811" cy="73.3911" r="8.46991" fill="#E91E63"/>
<circle cx="364.575" cy="92.9087" r="5.89211" fill="#03A9F4"/>
<circle cx="703.739" cy="240.58" r="31.3019" fill="#E91E63"/>
<circle cx="208.434" cy="431.705" r="40.5083" fill="#2196F3"/>
<circle cx="252.993" cy="125.684" r="43.8226" fill="#2196F3"/>
<circle cx="380.041" cy="427.286" r="39.0353" fill="#E91E63"/>
<circle cx="571.903" cy="136.731" r="27.6193" fill="#F44336"/>
<circle cx="451.483" cy="27.3589" r="7.36514" fill="#03A9F4"/>
<circle cx="614.253" cy="80.3879" r="15.4668" fill="#9C27B0"/>
<circle cx="701.898" cy="274.091" r="9.57469" fill="#F44336"/>
<circle cx="490.518" cy="342.587" r="17.6763" fill="#9C27B0"/>
<circle cx="476.893" cy="162.509" r="11.416" fill="#2196F3"/>
<circle cx="564.17" cy="39.1432" r="10.3112" fill="#E91E63"/>
<circle cx="80.6483" cy="389.356" r="25.4097" fill="#2196F3"/>
<circle cx="475.788" cy="120.16" r="31.6701" fill="#9C27B0"/>
<circle cx="416.131" cy="363.209" r="27.251" fill="#03A9F4"/>
<circle cx="348.371" cy="226.218" r="8.83817" fill="#9C27B0"/>
<circle cx="34.2479" cy="200.072" r="6.99689" fill="#F44336"/>
<circle cx="396.245" cy="461.902" r="39.0353" fill="#03A9F4"/>
<circle cx="211.38" cy="181.29" r="44.9274" fill="#9C27B0"/>
<circle cx="372.676" cy="193.811" r="20.6224" fill="#F44336"/>
<circle cx="146.935" cy="323.069" r="28.3558" fill="#03A9F4"/>
<circle cx="467.318" cy="326.015" r="9.94294" fill="#E91E63"/>
<circle cx="412.08" cy="399.667" r="4.05083" fill="#9C27B0"/>
<circle cx="778.864" cy="135.258" r="33.5114" fill="#9C27B0"/>
<circle cx="110.845" cy="120.528" r="6.26037" fill="#E91E63"/>
<circle cx="238.999" cy="291.399" r="20.9907" fill="#03A9F4"/>
<circle cx="423.496" cy="169.506" r="39.0353" fill="#9C27B0"/>
<circle cx="141.042" cy="80.0197" r="10.6795" fill="#E91E63"/>
<circle cx="45.2956" cy="79.2832" r="18.7811" fill="#03A9F4"/>
<circle cx="472.842" cy="235.056" r="11.0477" fill="#F44336"/>
<circle cx="501.566" cy="474.423" r="42.7178" fill="#F44336"/>
<circle cx="713.682" cy="427.286" r="2.94606" fill="#2196F3"/>
<circle cx="69.2323" cy="36.1971" r="20.6224" fill="#9C27B0"/>
<circle cx="750.876" cy="166.192" r="6.99689" fill="#F44336"/>
<circle cx="299.761" cy="361.736" r="22.8319" fill="#9C27B0"/>
<circle cx="675.752" cy="136.731" r="36.4575" fill="#9C27B0"/>
<circle cx="266.25" cy="64.5529" r="25.4097" fill="#E91E63"/>
<circle cx="499.357" cy="289.558" r="32.4066" fill="#9C27B0"/>
<circle cx="116.738" cy="227.323" r="18.0446" fill="#03A9F4"/>
<circle cx="718.101" cy="160.668" r="26.5145" fill="#F44336"/>
<circle cx="604.31" cy="147.042" r="26.1463" fill="#03A9F4"/>
<circle cx="38.2987" cy="156.985" r="22.8319" fill="#F44336"/>
<circle cx="258.517" cy="372.048" r="32.4066" fill="#E91E63"/>
<circle cx="678.33" cy="235.792" r="7.36514" fill="#2196F3"/>
<circle cx="253.729" cy="35.0923" r="9.94294" fill="#2196F3"/>
<circle cx="631.193" cy="84.0705" r="13.2573" fill="#03A9F4"/>
<circle cx="357.946" cy="251.259" r="19.8859" fill="#F44336"/>
<circle cx="561.96" cy="60.5021" r="6.62863" fill="#2196F3"/>
<circle cx="261.094" cy="169.874" r="42.3496" fill="#F44336"/>
<circle cx="58.5529" cy="164.719" r="19.5176" fill="#9C27B0"/>
<circle cx="170.503" cy="141.15" r="17.3081" fill="#F44336"/>
<circle cx="95.3786" cy="365.051" r="29.8288" fill="#F44336"/>
<circle cx="512.246" cy="245.735" r="14.362" fill="#9C27B0"/>
<circle cx="282.822" cy="121.633" r="5.89211" fill="#F44336"/>
<circle cx="92.4326" cy="307.603" r="29.0923" fill="#9C27B0"/>
</g>
<path d="M316.035 546.172C311.777 546.172 307.852 545.078 304.258 542.891C300.703 540.703 297.832 537.793 295.645 534.16C293.496 530.488 292.422 526.465 292.422 522.09L292.539 484.062C292.539 479.609 293.613 475.605 295.762 472.051C297.871 468.457 300.723 465.586 304.316 463.438C307.91 461.25 311.816 460.156 316.035 460.156C320.41 460.156 324.336 461.23 327.812 463.379C331.328 465.527 334.141 468.418 336.25 472.051C338.398 475.645 339.473 479.648 339.473 484.062L339.59 522.09C339.59 526.465 338.535 530.469 336.426 534.102C334.277 537.773 331.426 540.703 327.871 542.891C324.316 545.078 320.371 546.172 316.035 546.172ZM316.035 531.699C318.457 531.699 320.566 530.723 322.363 528.77C324.16 526.777 325.059 524.551 325.059 522.09L324.941 484.062C324.941 481.406 324.102 479.16 322.422 477.324C320.742 475.488 318.613 474.57 316.035 474.57C313.574 474.57 311.465 475.469 309.707 477.266C307.949 479.062 307.07 481.328 307.07 484.062V522.09C307.07 524.707 307.949 526.973 309.707 528.887C311.465 530.762 313.574 531.699 316.035 531.699ZM362.734 545H349.141C348.828 545 348.672 544.805 348.672 544.414L348.789 461.973C348.789 461.66 348.984 461.504 349.375 461.504H362.734C363.125 461.504 363.32 461.66 363.32 461.973L363.203 494.609H381.191V461.973C381.191 461.66 381.348 461.504 381.66 461.504H395.02C395.41 461.504 395.605 461.66 395.605 461.973L395.84 544.414C395.84 544.805 395.645 545 395.254 545H381.777C381.387 545 381.191 544.805 381.191 544.414V509.141H363.203V544.414C363.203 544.805 363.047 545 362.734 545ZM419.805 545H406.211C405.82 545 405.625 544.805 405.625 544.414L405.742 461.973C405.742 461.66 405.898 461.504 406.211 461.504H419.688C420 461.504 420.156 461.66 420.156 461.973L420.273 544.414C420.273 544.805 420.117 545 419.805 545ZM453.027 546.172C448.77 546.172 444.844 545.078 441.25 542.891C437.695 540.703 434.824 537.793 432.637 534.16C430.488 530.488 429.414 526.465 429.414 522.09L429.531 484.062C429.531 479.609 430.605 475.605 432.754 472.051C434.863 468.457 437.715 465.586 441.309 463.438C444.902 461.25 448.809 460.156 453.027 460.156C457.402 460.156 461.328 461.23 464.805 463.379C468.32 465.527 471.133 468.418 473.242 472.051C475.391 475.645 476.465 479.648 476.465 484.062L476.582 522.09C476.582 526.465 475.527 530.469 473.418 534.102C471.27 537.773 468.418 540.703 464.863 542.891C461.309 545.078 457.363 546.172 453.027 546.172ZM453.027 531.699C455.449 531.699 457.559 530.723 459.355 528.77C461.152 526.777 462.051 524.551 462.051 522.09L461.934 484.062C461.934 481.406 461.094 479.16 459.414 477.324C457.734 475.488 455.605 474.57 453.027 474.57C450.566 474.57 448.457 475.469 446.699 477.266C444.941 479.062 444.062 481.328 444.062 484.062V522.09C444.062 524.707 444.941 526.973 446.699 528.887C448.457 530.762 450.566 531.699 453.027 531.699Z" fill="black"/>
<rect x="4" y="4" width="769" height="435" rx="74" stroke="black" stroke-width="8"/>
</svg>
